<svg xmlns="http://www.w3.org/2000/svg" width="80.488" height="40" viewBox="0 0 80.488 40">
  <defs>
    <style>
      .cls-1 {
        fill: #d9623c;
      }

      .cls-2 {
        fill: #fff;
      }

      .cls-3 {
        fill: #84af68;
      }
    </style>
  </defs>
  <g id="Group_2224" data-name="Group 2224" transform="translate(425.812 306.688)">
    <path id="Path_1125" data-name="Path 1125" class="cls-1" d="M671.853,147.646v1.926a12.981,12.981,0,0,0,0,1.422,30.128,30.128,0,0,1,0,3.7c-.052.863,0,1.724,0,2.637-.052,1.572-.1,3.2-.2,4.767-.051.608-.051,1.116-.051,1.724a5.333,5.333,0,0,1-.709,2.079,1.809,1.809,0,0,0-.2.558,1.56,1.56,0,0,0-.457.2,2.131,2.131,0,0,1-.3.508c-.253.658-.558.658-1.014.2a.222.222,0,0,1-.152-.051,1.462,1.462,0,0,0-.3.556,5.536,5.536,0,0,0-3.144-.1c-.1-.152-.253-.3-.354-.457-.1.051-.1.1-.152.1-.507.355-.913.4-1.269-.051a6.084,6.084,0,0,1-.912-1.572,4.413,4.413,0,0,1-.1-2.435,7.147,7.147,0,0,0,0-1.471c.051-1.064.152-2.028.253-3.093a11.98,11.98,0,0,1,0-2.334,28.173,28.173,0,0,0,.1-4.158c.1-.965.153-1.978.2-2.941a9.862,9.862,0,0,1,.1-1.675c0-.71.1-1.471.152-2.231,0-.051.1-.2.1-.254-.354-1.166.051-2.282,0-3.5,0-1.116.1-2.282.2-3.5,0-1.064.051-2.028.1-3.094.1-1.114.152-2.23.253-3.3.1-.658.153-1.318.2-1.926.1-.3.2-.71.3-1.014.052-.355.254-.457.76-.761a2.693,2.693,0,0,1,.153.61c.05-.051.05-.051.1-.051a2.419,2.419,0,0,0,.152-.457c.153-.3.254-.406.509-.3v.761a8.408,8.408,0,0,0,.658-.61c.457.153.965.254,1.471.406.152,0,.3.051.406-.051.2-.2.406-.152.659,0a1.463,1.463,0,0,0,.659.051,13.337,13.337,0,0,1,2.841.051,17.242,17.242,0,0,1,2.231.406,7.458,7.458,0,0,1,4.666,2.84,8.159,8.159,0,0,1,1.522,2.841,7.687,7.687,0,0,1,.2,3.043,9.137,9.137,0,0,1-1.37,3.6,7.374,7.374,0,0,1-2.839,2.435,12.629,12.629,0,0,1-4.868,1.267c-.1,0-.2.051-.406.051A9.317,9.317,0,0,0,671.853,147.646Zm-7.3-2.688c0,.253.051.608.051.913h.152a5.224,5.224,0,0,1,.051-.913Zm.1-2.536v.811h.152a4.1,4.1,0,0,0,.051-.811Zm.4-11.714c-.051,1.013-.2,1.926-.253,2.84v2.89c-.051,1.014,0,1.926-.051,2.891a5.263,5.263,0,0,0,.2,2.789c.05-3.8.2-7.607.3-11.36C665.208,130.708,665.158,130.708,665.057,130.708Zm1.014,1.977c0-.253.051-.507.051-.812h-.051a5.642,5.642,0,0,0-.152.812Zm0,9.484v-9.027h-.152v9.027Zm-.152.76v.355a.161.161,0,0,0,.051-.1v-.253Zm.2-11.715v-.659h-.051v.659Zm2.637,6.238c0,.2-.051.355-.051.507,0,.2.051.354.051.507.051,1.47.051,2.941.152,4.361a4.276,4.276,0,0,0,.1.659c.1-.2.152-.254.152-.3-.051-1.673-.2-3.3-.254-4.97,0-.051-.152-.2-.2-.253C668.759,137.808,669.013,137.706,668.759,137.452Zm0-1.116v0Zm.355,9.737c-.1-.457.1-.913,0-1.471-.1.1-.152.1-.152.152v1.319Zm.71-14.909c0,.354.051.607.051.861.051.406.152.711.2,1.065a.4.4,0,0,0,.153-.051c0-.2-.1-.507-.1-.76-.051-.052-.2-.1-.253-.254A.631.631,0,0,0,669.824,131.165Zm.709,12.221a3.207,3.207,0,0,0,.457-.1,69.364,69.364,0,0,0-.76-9.28C670.432,137.1,670.483,140.191,670.533,143.386Zm4.868-1.471a4.019,4.019,0,0,0,1.623-1.572,24.738,24.738,0,0,0,.915-2.332,7.181,7.181,0,0,0,.2-2.738,7.036,7.036,0,0,0-2.536-4.412,3.015,3.015,0,0,0-1.318-.761,16.373,16.373,0,0,0-2.74-.3c-.354,0-.76.052-1.065.052a116.471,116.471,0,0,1,1.42,13.337A8.277,8.277,0,0,0,675.4,141.915Zm-4.462,3.094c-.354-.051-.406.051-.406.355a5.758,5.758,0,0,1,0,1.876,7.063,7.063,0,0,0,.052,1.471,2.734,2.734,0,0,0,.152.507A19.28,19.28,0,0,0,670.94,145.009Zm-.253,6.39a.87.87,0,0,0,.051.355c0-.1.051-.1.051-.1a.9.9,0,0,0-.051-.3Zm.1-1.166v.507h.1v-.507Zm8.013-14v-.457a.2.2,0,0,0-.1.2v.253Zm1.572.354v0Zm.659-.607v1.724A2.029,2.029,0,0,0,681.032,135.982Z" transform="translate(-1088.208 -434.568)"/>
    <path id="Path_1126" data-name="Path 1126" class="cls-2" d="M691.675,141.313a36.694,36.694,0,0,1,4.613.577,20.885,20.885,0,0,1,6.442,1.682,7.392,7.392,0,0,1,3.364,2.692,5.744,5.744,0,0,1,.865,1.585,5.606,5.606,0,0,1,.288,2.5,21.981,21.981,0,0,0-.385,3.509,7.929,7.929,0,0,1-1.873,4.421,11.317,11.317,0,0,1-1.395,1.251,6.1,6.1,0,0,1-1.489.961,20.542,20.542,0,0,1-2.933.865c-1.393.336-2.836.24-4.181.432a23.971,23.971,0,0,1-2.644-.048c-.048,0-.192-.048-.24-.048a27.247,27.247,0,0,1-4.854-.432,23.711,23.711,0,0,1-4.566-1.2,17.33,17.33,0,0,1-1.874-.625,30.955,30.955,0,0,1-3.317-1.683,9.267,9.267,0,0,1-2.5-1.97,3.659,3.659,0,0,1-.865-1.105,11.091,11.091,0,0,1-1.586-4.518v-.241a3.731,3.731,0,0,1,.673-3.652,10.79,10.79,0,0,1,5.094-3.893,15.916,15.916,0,0,1,6.874-1.3h.288v-.145C687.541,141.074,689.609,141.17,691.675,141.313Zm.624,19.13c.625,0,1.25.048,1.874.048a6.459,6.459,0,0,0,1.009.048c.673-.048,1.347-.1,2.067-.1a14.9,14.9,0,0,0,2.981-.577c.432-.144.768-.336,1.105-.48a8.651,8.651,0,0,0-2.164.432c-.769.1-1.489.241-2.258.336s-1.539.145-2.356.193H692.3Zm-.336-.193H689.8A4.071,4.071,0,0,0,691.963,160.25Zm4.9-1.153h-1.2v.193c.816-.048,1.634-.193,2.452-.241A2.757,2.757,0,0,0,696.865,159.1Zm1.73-3.316c-1.874.144-3.749.288-5.623.384C694.847,156.165,696.77,156.4,698.6,155.781Zm-9.324.288c.961.049,1.875.1,2.836.1.144.1.24,0,.384-.047a.355.355,0,0,0-.192-.049c-1.057-.1-2.21-.144-3.268-.144-.241,0-.433-.048-.673-.048v.192a1.89,1.89,0,0,1,.673-.144C689.176,155.925,689.224,156.069,689.271,156.069Zm-1.586-.288h-.576v.1h.576Zm-7.161-.673c1.97.192,3.941.433,5.911.625v-.1c-1.971-.287-3.941-.48-5.911-.72Zm18.937-1.491c-.337.048-.721.144-1.106.193a31.48,31.48,0,0,1-5.19.384c-1.2-.1-2.452-.1-3.6-.144-.624,0-1.2,0-1.825-.048-1.828-.144-3.558-.337-5.384-.385-.914-.047-1.922,0-2.885-.047-.528,0-1.105-.1-1.681-.1v.143c.528.048,1.057.241,1.633.241,1.732.144,3.557.24,5.383.384,1.635.048,3.172.192,4.807.24,1.537.145,3.124.193,4.662.193a19.342,19.342,0,0,0,2.4-.145,3.886,3.886,0,0,0,1.3-.24,1.779,1.779,0,0,1,.817-.24c.24-.048.481-.192.673-.24Zm-.241-.864c.625-.193,1.25-.529,1.826-.769a6.585,6.585,0,0,0,1.2-.817l.721-.721a3.923,3.923,0,0,0,.865-1.585c0-.1-.048-.241-.048-.385a5.8,5.8,0,0,0-1.009-1.489,9.437,9.437,0,0,0-3.22-1.874,30.291,30.291,0,0,0-8.747-1.683,48.569,48.569,0,0,0-7.5.048,15,15,0,0,0-7.5,2.5,4.323,4.323,0,0,0-1.587,1.634c-.048.049-.192.144-.24.192-.385.193-.481.481-.481.963a4.31,4.31,0,0,0,3.125,3.893,8.72,8.72,0,0,0,3.845.384c1.249,0,2.546-.048,3.8-.048,1.393,0,2.788.192,4.229.24,1.587.048,3.221.145,4.854.145h2.356A19.878,19.878,0,0,0,699.22,152.753ZM681.484,141.6l-.048.1h.673a5.674,5.674,0,0,1,1.01-.144c.239-.048.48-.145.816-.193-.1,0-.1,0-.1-.048-.24.048-.481.193-.72.241-.385-.048-.721-.193-1.01.144C681.87,141.7,681.678,141.6,681.484,141.6Z" transform="translate(-1085.265 -430.689)"/>
    <path id="Path_1127" data-name="Path 1127" class="cls-1" d="M706.316,144.752a1.165,1.165,0,0,0-.2.71c0,1.37,0,2.789-.052,4.108,0,.964.1,1.978.1,2.942,0,.354-.051.76-.051,1.116.051,2.181.051,4.36.051,6.491a14.257,14.257,0,0,1,0,2.079,2.219,2.219,0,0,1-.1.861c-.1.406-.253.812-.812.608a2.179,2.179,0,0,1-.2.608,1.4,1.4,0,0,1-.558.659,2.989,2.989,0,0,0-.407.254c-.457.406-.457.406-1.013,0a1.568,1.568,0,0,1-.254.3,13.906,13.906,0,0,1-1.623-.2c-.2-.051-.406-.3-.558-.507-.1-.2-.2-.457-.406-.861-.2.608.355.912.406,1.318-.507.2-.608-.406-.963-.457a.827.827,0,0,1-.1.457h-.253c-.711-.457-1.522-.761-1.928-1.572a5.788,5.788,0,0,1-.3-1.267c0-1.37.051-2.738.051-4.159,0-.457-.051-.912-.051-1.42.051-.811.153-1.673.2-2.434v-1.42a18.588,18.588,0,0,1,.2-3.347v-.71c0-1.117.051-2.181.1-3.246a12.8,12.8,0,0,1,.1-1.978v-.964c.1-1.522.253-3.043.355-4.615.1-.607.152-1.217.2-1.825.1-.76.1-1.572.2-2.332.2-1.318.406-2.637.659-3.957a1.6,1.6,0,0,1,1.065-1.217v1.065c.2-.507.254-.963.812-1.267.1.2.2.355.3.558.354-.355.607-.2.912-.1.457.152.964.506,1.471.2a.2.2,0,0,1,.2.1c.457.457,1.167.71,1.369,1.522a28.6,28.6,0,0,1,.61,4.108c.051,1.673.2,3.246.3,5.02.406-.507.76-.963,1.064-1.419.61-.863,1.117-1.776,1.724-2.637,1.066-1.724,2.03-3.449,3.094-5.173a7.262,7.262,0,0,1,.913-1.167c.2-.2.608-.2.861-.354a.781.781,0,0,1,.052.2c.406,0,.812.1,1.166.1a1.572,1.572,0,0,1,.051.507c.2-.2.406-.354.659-.608a7.516,7.516,0,0,0-.051,1.066,6.523,6.523,0,0,1,.355-.61c.3.355.152.66.1.964-.3.659-.608,1.37-.964,1.978-.811,1.319-1.775,2.536-2.637,3.8-.457.659-.912,1.369-1.368,1.978-.711.912-1.42,1.825-2.079,2.687a22.662,22.662,0,0,1,1.978,4.565c.507,1.522,1.013,3.094,1.572,4.666.71,2.231,1.419,4.412,2.079,6.695a18.52,18.52,0,0,1,.811,4.919,2.885,2.885,0,0,0,.051.658,1.3,1.3,0,0,1,0,1.066.888.888,0,0,1-.912.659c-.406,0-.812-.2-1.269-.052a.718.718,0,0,1-.354-.4,1.635,1.635,0,0,1-.2-.659c-.356-1.673-.66-3.3-1.065-4.868-.608-2.334-1.269-4.615-1.876-6.948-.507-2.131-.965-4.209-1.471-6.34-.2-.761-.406-1.522-.659-2.384A14.754,14.754,0,0,0,706.316,144.752Zm-6.542-13.338c-.1,1.319-.254,2.637-.406,3.906-.1,1.775-.153,3.549-.254,5.325-.1,1.673-.2,3.246-.253,4.868v1.419c-.051.963-.153,2.029-.2,3.043a.359.359,0,0,0,.153.3h.1c.152-6.592.761-13.134,1.065-19.727A3.6,3.6,0,0,1,699.774,131.414Zm.253,18.562a2.109,2.109,0,0,0,.1-.76h-.152v.76Zm0-2.283v.355h.1v-.355Zm.2-2.282V144.3h-.1v1.116Zm0-1.673v0Zm.406-9.078a51.521,51.521,0,0,0-.254,7.4C700.433,139.528,700.686,137.094,700.636,134.659Zm.2-1.522v-.963h-.152v.963Zm0-2.029c0,.051.052.2.052.3a.684.684,0,0,1,.1-.406C700.89,131.109,700.89,131.109,700.838,131.109Zm2.435,21.555v-4.514h-.1a26.89,26.89,0,0,0,0,4.514Zm0-14.505c-.051,1.928-.051,3.906-.1,5.884C703.526,143.434,703.526,138.919,703.273,138.158Zm1.876,17.345c.051-3.2.1-6.288.153-9.484-.457.152-.507.507-.507.913,0,1.116,0,2.182-.051,3.3a11.411,11.411,0,0,0,.1,2.637v.913a9.19,9.19,0,0,1,.1,1.724ZM705,134.964v-.507C704.744,134.609,704.795,134.71,705,134.964Zm.4,5.832a3.815,3.815,0,0,1-.1-1.066c-.052-1.369-.1-2.788-.153-4.208,0-.152-.1-.254-.1-.457h-.2v6.592A1.132,1.132,0,0,0,705.4,140.8Zm6.238,15.568a1.186,1.186,0,0,1,.2.509.05.05,0,0,1,.051-.052c-.051-.152-.1-.354-.152-.558Zm1.926-1.318a3.066,3.066,0,0,1,.3.711c.1.253.152.607.3.912.254,1.267.508,2.587.863,3.855a13.741,13.741,0,0,0-.811-3.8c0-.051-.052-.051-.153-.051a.879.879,0,0,0-.2-.912C713.821,155.3,713.821,155.3,713.568,155.046Z" transform="translate(-1077.899 -434.362)"/>
    <path id="Path_1128" data-name="Path 1128" class="cls-1" d="M724.434,145.036a13.133,13.133,0,0,1,2.434.051c.659.052.913.355.761,1.014,0,0-.1,0-.1.051-.406.61-.964.457-1.47.457-1.167.051-2.384.051-3.6.153,0,5.731-.406,11.36-.61,17.192a4.061,4.061,0,0,0,.761-.152c1.065-.052,2.13-.1,3.246-.1.356,0,.71,0,.811.457,0,.2.051.3-.152.4-.253.052-.1.509-.506.509-.2,0-.458.051-.66.051-.912.1-1.877.152-2.738.2-.457.051-.812.153-1.318.2a1.079,1.079,0,0,0-.761.354.825.825,0,0,1-1.013.152c-.052-.051-.1-.1-.2-.051-.66.355-1.369-.051-2.079.051a2.538,2.538,0,0,1-.608-.1,1.6,1.6,0,0,0-1.116-.253c-.3.1-.659-.152-.913-.457a2.414,2.414,0,0,1-.608-1.318,21.89,21.89,0,0,1-.2-3.144,5.8,5.8,0,0,0-.051-1.319c-.051-1.623-.152-3.347-.152-5.071,0-.558.1-1.218.1-1.876a3.825,3.825,0,0,0,0-.761,5.752,5.752,0,0,1,0-1.319c.051-1.775.2-3.6.3-5.376.051-.912.051-1.876.152-2.789a4.794,4.794,0,0,1,.2-1.065c.05-.71.1-1.522.2-2.231a23.388,23.388,0,0,1,.3-2.637c.151-.912.2-1.825.4-2.738a21.506,21.506,0,0,1,.964-3.854,1.408,1.408,0,0,1,.811-.71v.76c.406-.659.406-.659.711-.913a2.585,2.585,0,0,1,.153.811c.253-.556.607-.607.962-.4a1.469,1.469,0,0,0,.66-.051c1.013-.253,1.977-.608,2.991-.812a7.209,7.209,0,0,1,3.6.355c.1,0,.152.051.2.051.253.2.558.3.4.659,0,.2-.506.457-.708.457-.61,0-1.117,0-1.675.051-1.065.2-2.029.406-3.092.61a3.79,3.79,0,0,0,.152.861,10.366,10.366,0,0,1,.506,3.043,22.862,22.862,0,0,1,.2,2.637c.051,1.114.051,2.231.152,3.4,0,.558.051,1.065.051,1.623,0,.71.051,1.471.051,2.282,0,.152.1.355.1.608Zm-9.585,10.143a4.4,4.4,0,0,1,.051.863h.2c0-.354-.052-.608-.052-.863Zm.051-3.093a1.632,1.632,0,0,0,.1.71c.2-.253.254-.507.051-.71Zm0,2.231a.486.486,0,0,0,.1.354h.051v-.354Zm.1,2.484a.437.437,0,0,0,.1.61v-.61Zm.1-5.121c0-.153.1-.2.1-.254s-.1-.152-.153-.2l-.051.052c0,.152.051.253.051.406Zm-.052-2.434v.455h.052a.748.748,0,0,1,.1-.455Zm.052,14c0,.1.1.152.1.3h.1a.9.9,0,0,1-.051-.3Zm1.42-31.189c0,.2-.1.3-.152.507-.153.913-.254,1.827-.356,2.841-.153,1.52-.3,3.093-.507,4.614-.051.711-.051,1.47-.153,2.181-.051.659-.051,1.319-.051,1.978-.051.608,0,1.116-.051,1.724,0,.558-.051,1.217-.051,1.876-.1.2,0,.355,0,.558.1-1.318.254-2.737.3-4.056a36.6,36.6,0,0,1,.354-4.058c.153-1.369.254-2.789.355-4.107.1-1.37.406-2.688.457-4.007C716.623,132.1,716.573,132.053,716.522,132.053Zm0,11.259v2.283A8.623,8.623,0,0,0,716.522,143.312Zm.912-10.8a66.481,66.481,0,0,0-.76,9.535C716.977,138.9,717.232,135.654,717.434,132.51Zm2.081,5.578c0,1.218-.052,2.384-.052,3.652,0,1.065,0,2.181-.051,3.2a.7.7,0,0,0,.254.66v-7.507Zm0,9.027a12.943,12.943,0,0,0,0,1.42,12.945,12.945,0,0,0-.052,1.419,13.425,13.425,0,0,0,.052,1.42.1.1,0,0,0,.1-.1c.051-1.37.051-2.738.1-4.159Zm1.419,12.071s-.1.1,0,.152a.157.157,0,0,0,.05.1c.051-.051.051-.1.153-.152C721.035,159.287,720.985,159.186,720.934,159.186Zm.2-2.891a1.477,1.477,0,0,0,.1-.455c.051-1.269.152-2.587.2-3.8.051-1.52.152-3.042.2-4.564v-.2c0-.406-.2-.406-.506-.254,0,1.522-.153,3.094,0,4.615.051,1.571-.2,3.093-.153,4.665Zm0,.66h-.153v1.825A3.687,3.687,0,0,0,721.138,156.955Zm.506-12.172c-.051-.811-.051-1.623-.152-2.383,0-1.572-.051-3.246-.051-4.818-.051-.355-.152-.61-.2-.863a77.76,77.76,0,0,0-.051,8.419C721.593,145.29,721.644,145.086,721.644,144.783Z" transform="translate(-1072.996 -434.443)"/>
    <g id="Group_1360" data-name="Group 1360" transform="translate(-399.979 -305.788)">
      <path id="Path_1129" data-name="Path 1129" class="cls-3" d="M686.016,135.855c-.049,0-.066.032-.1,0a.5.5,0,0,1-.148-.165c-.032-.065.034-.131.115-.148a.338.338,0,0,1,.2-.082,7.913,7.913,0,0,1,1.395-.114c.148.032.279.032.411.065a.3.3,0,0,1,.279.345c.016.492,0,.985,0,1.476-.017.427-.017.854-.066,1.247-.017.361-.1.738-.148,1.1a2.293,2.293,0,0,1-.328.918,2.215,2.215,0,0,1-.787.821,1.576,1.576,0,0,1-.951.18,2,2,0,0,0-.541-.032,3.313,3.313,0,0,1-1.493-.165,2.183,2.183,0,0,1-.755-.59,2.03,2.03,0,0,1-.345-.64,6.1,6.1,0,0,1-.344-1.264,3.065,3.065,0,0,1-.066-.689c0-.017.017-.066.017-.083-.017-.294-.032-.59-.032-.9a2.559,2.559,0,0,1,0-.509c.015-.3.032-.59.032-.886a12.874,12.874,0,0,1,.115-1.41c.032-.411.131-.837.2-1.263a6.378,6.378,0,0,1,.575-2.051,6,6,0,0,1,.82-1.395,3.25,3.25,0,0,1,.837-.738,1.826,1.826,0,0,1,1.362-.279c.213.049.459.1.672.131a1.8,1.8,0,0,1,.952.558,1.583,1.583,0,0,1,.344.854,3.742,3.742,0,0,1,0,1.049c-.049.214-.065.23-.279.131-.017-.032-.049-.032-.082-.048a4.36,4.36,0,0,1-.066-.444,3.608,3.608,0,0,0-.361-1,2.152,2.152,0,0,0-.393-.461.455.455,0,0,0-.723.115,1.329,1.329,0,0,0-.1.214c-.114.361-.213.7-.311,1.065a17.557,17.557,0,0,0-.393,2.018q-.1.64-.148,1.279a9.274,9.274,0,0,0-.1,1.772v1.985a2.819,2.819,0,0,1,.049.542,3.361,3.361,0,0,0,.492,1.509,1.33,1.33,0,0,0,.476.427.119.119,0,0,0,.163-.066,2.915,2.915,0,0,0,.345-.573,6.013,6.013,0,0,0,.311-2.035c.033-.459.083-.951.116-1.427a1.214,1.214,0,0,0,.016-.245C686.82,135.92,686.411,135.9,686.016,135.855Zm-3.231.426v.115h.049v-.115Zm.065-.23v-.344C682.9,135.822,682.7,135.92,682.85,136.051Zm.246,3.774c.032.115.049.262.23.328-.082-.262-.18-.492-.23-.723a5.7,5.7,0,0,1-.2-.754A2.317,2.317,0,0,0,683.1,139.825Zm-.2-5.134h.017v-.115C682.916,134.624,682.916,134.674,682.9,134.69Zm.1-.772a.439.439,0,0,0,.049-.163c-.017,0-.017-.032-.049-.032,0,.065-.016.131-.016.2Zm.2-1.1a.53.53,0,0,1,.049-.245c-.034,0-.034,0-.049-.017a.533.533,0,0,1-.049.23C683.178,132.82,683.178,132.82,683.195,132.82Zm.213,6.4a2.121,2.121,0,0,0-.082-.311l-.017.032c.017.082.034.18.049.279Zm-.016.1c.016.049.016.114.033.163a.617.617,0,0,1,.066.182c0-.066.048-.182-.066-.182A.1.1,0,0,0,683.392,139.316Zm.918-2.707v-.344h-.032a2.238,2.238,0,0,1-.017.344Zm0-.573c.065-.837.114-1.706.213-2.609A12.3,12.3,0,0,0,684.31,136.036Zm.082,2.871c.066.148,0,.344.148.492A.922.922,0,0,0,684.392,138.906Zm.23-6.136c.017-.082.049-.2.066-.279h-.017a1.219,1.219,0,0,0-.066.279Zm.214,4.347a1.152,1.152,0,0,0,.082.558.2.2,0,0,0,.032-.114v-.886c.017-.541.017-1.066.066-1.607.032-.607.1-1.231.163-1.854.017-.148.049-.313.066-.459.033-.214.082-.427.131-.641.033-.213.082-.425.114-.64.049-.213.1-.427.132-.64A18.855,18.855,0,0,0,684.836,137.118Zm.082.624c-.034.032-.034.082-.066.1-.016.262.066.525.066.755a1.318,1.318,0,0,0,.213.7c.032.017,0,.066.032.083.066.082.066.228.182.279A11.115,11.115,0,0,1,684.917,137.742Zm.82-7.316a.508.508,0,0,0-.066.131h.034c0-.049.033-.082.049-.131Z" transform="translate(-682.311 -128.574)"/>
      <path id="Path_1130" data-name="Path 1130" class="cls-3" d="M694.436,134.7c-.049.427-.1.854-.18,1.28a12.135,12.135,0,0,1-.41,2.034c-.148.509-.3,1-.459,1.493a3.864,3.864,0,0,1-.772,1.148,2.345,2.345,0,0,1-.279.279,1.154,1.154,0,0,1-1.049.23h-.3a6.914,6.914,0,0,1-.82,0,1.1,1.1,0,0,1-.427-.132,3.692,3.692,0,0,1-1.18-.82,3.522,3.522,0,0,1-.558-.771,3.3,3.3,0,0,1-.246-.918c-.1-.361-.148-.723-.213-1.083a4.353,4.353,0,0,1-.066-.787c0-.427,0-.852.017-1.279.016-.493.049-1,.114-1.493a9.933,9.933,0,0,1,.148-1.2,3.2,3.2,0,0,1,.148-.689c.131-.345.279-.656.393-.985a3.941,3.941,0,0,1,.526-.755,2.775,2.775,0,0,1,1.28-.951,4.635,4.635,0,0,1,2.46-.115c.1.017.165.017.247.032a3.153,3.153,0,0,1,.345.132,2,2,0,0,1,.327.328,3.921,3.921,0,0,1,.985,2.526c0,.345.017.673.049,1.148C694.485,133.7,694.468,134.212,694.436,134.7Zm-5.922,4.61a12.2,12.2,0,0,1-.508-2.018c0,.23.049.444.065.673a4.049,4.049,0,0,0,.23,1.066c.049.114.115.213.165.328C688.48,139.33,688.5,139.33,688.514,139.314Zm-.017-1.493h-.017v.2c.034.163.083.361.132.524a.74.74,0,0,0-.132-.524A.783.783,0,0,0,688.5,137.821Zm1.034-4.085v-.163H689.5v.18C689.5,133.736,689.531,133.736,689.531,133.736Zm.016,3.74a2.537,2.537,0,0,0,.231,1.248C689.695,138.3,689.63,137.886,689.547,137.476Zm.559-1.8a24.73,24.73,0,0,1,.163-3.313c0-.017-.017-.066-.017-.082a12.259,12.259,0,0,0-.213,3.478C690.055,135.705,690.106,135.688,690.106,135.672Zm-.066.558c0,.394.016.787.016,1.165a3.729,3.729,0,0,0,.214,1.083.44.44,0,0,0,.213.311,15.462,15.462,0,0,1-.41-2.559Zm2.313,2.954a6.457,6.457,0,0,0,.951-2.675c.034-.393.1-.771.148-1.165.032-.509.131-1.017.148-1.526s0-1-.017-1.526a4.214,4.214,0,0,0-.114-.9,3.673,3.673,0,0,0-.787-1.673.587.587,0,0,0-.3-.163,1.085,1.085,0,0,0-.607,0,3.7,3.7,0,0,0-.524.18.867.867,0,0,0-.394.689,8.035,8.035,0,0,1-.114.869c-.049.345-.18.689-.2,1.049-.017.476-.082.918-.115,1.362-.016.508-.016,1-.032,1.526v.1c.017.361.017.721.017,1.082,0,.246,0,.476.016.706.049.328.115.673.165.985a1.442,1.442,0,0,0,.1.378,4.528,4.528,0,0,0,.968,1.459A2.738,2.738,0,0,0,692.352,139.183Zm1.886-7.777a2.927,2.927,0,0,1,.032.411.062.062,0,0,0,.051-.034,2.869,2.869,0,0,1-.051-.377Zm.083.558v.165h.016v-.165Z" transform="translate(-680.774 -128.424)"/>
    </g>
  </g>
</svg>
