<svg xmlns="http://www.w3.org/2000/svg" width="122.744" height="61" viewBox="0 0 122.744 61">
  <defs>
    <style>
      .cls-1 {
        fill: #d9623c;
      }

      .cls-2 {
        fill: #fff;
      }

      .cls-3 {
        fill: #84af68;
      }
    </style>
  </defs>
  <g id="Group_2224" data-name="Group 2224" transform="translate(425.812 306.688)">
    <path id="Path_1125" data-name="Path 1125" class="cls-1" d="M676.818,158.023v2.938a19.793,19.793,0,0,0,0,2.168,45.965,45.965,0,0,1,0,5.644c-.079,1.316,0,2.629,0,4.022-.079,2.4-.156,4.872-.311,7.27-.077.928-.077,1.7-.077,2.629a8.132,8.132,0,0,1-1.082,3.171,2.757,2.757,0,0,0-.309.851,2.38,2.38,0,0,0-.7.309,3.249,3.249,0,0,1-.465.775c-.386,1-.851,1-1.547.309a.338.338,0,0,1-.232-.077,2.229,2.229,0,0,0-.465.849,8.442,8.442,0,0,0-4.8-.152c-.154-.231-.386-.465-.54-.7-.154.077-.154.154-.232.154-.774.542-1.393.617-1.935-.077a9.277,9.277,0,0,1-1.391-2.4,6.731,6.731,0,0,1-.154-3.713,10.894,10.894,0,0,0,0-2.243c.077-1.622.232-3.092.386-4.716a18.275,18.275,0,0,1,0-3.559c.388-2.087.077-4.176.154-6.34.156-1.472.233-3.017.31-4.485a15.036,15.036,0,0,1,.155-2.554c0-1.082.154-2.243.231-3.4,0-.077.154-.309.154-.388-.54-1.778.077-3.48,0-5.335,0-1.7.154-3.48.309-5.337,0-1.622.077-3.092.156-4.718.154-1.7.231-3.4.386-5.027.156-1,.234-2.01.311-2.938.154-.465.308-1.082.463-1.547.079-.542.387-.7,1.159-1.161a4.108,4.108,0,0,1,.234.93c.077-.077.077-.077.154-.077a3.689,3.689,0,0,0,.231-.7c.233-.465.388-.619.776-.465V129.1a12.834,12.834,0,0,0,1-.93c.7.233,1.472.388,2.243.619.231,0,.465.077.619-.077.309-.309.619-.231,1.005,0a2.231,2.231,0,0,0,1.005.077,20.339,20.339,0,0,1,4.332.077,26.294,26.294,0,0,1,3.4.619,11.373,11.373,0,0,1,7.116,4.33,12.443,12.443,0,0,1,2.321,4.332,11.722,11.722,0,0,1,.309,4.641,13.935,13.935,0,0,1-2.089,5.49,11.246,11.246,0,0,1-4.33,3.713,19.261,19.261,0,0,1-7.424,1.933c-.155,0-.309.077-.62.077A14.209,14.209,0,0,0,676.818,158.023Zm-11.136-4.1c0,.386.077.928.077,1.393h.232a7.968,7.968,0,0,1,.077-1.393Zm.154-3.867v1.236h.231a6.237,6.237,0,0,0,.077-1.236Zm.617-17.864c-.077,1.545-.308,2.938-.386,4.33v4.408c-.077,1.547,0,2.938-.077,4.41-.154,2.164-.154,3.557.309,4.253.077-5.8.308-11.6.463-17.324C666.685,132.193,666.608,132.193,666.453,132.193ZM668,135.208c0-.386.077-.774.077-1.238H668a8.6,8.6,0,0,0-.232,1.238Zm0,14.463V135.9h-.232v13.767Zm-.232,1.159v.542a.246.246,0,0,0,.077-.156v-.386Zm.309-17.866v-1.005H668v1.005Zm4.022,9.513c0,.311-.077.542-.077.773,0,.309.077.54.077.774.077,2.241.077,4.485.232,6.651a6.513,6.513,0,0,0,.156,1c.154-.309.231-.388.231-.465-.077-2.552-.308-5.027-.388-7.579,0-.077-.232-.309-.309-.386C672.1,143.02,672.487,142.866,672.1,142.478Zm0-1.7v0Zm.542,14.849c-.154-.7.154-1.393,0-2.243-.154.154-.231.154-.231.231v2.012Zm1.082-22.736c0,.54.077.926.077,1.314.077.619.231,1.084.308,1.624a.609.609,0,0,0,.234-.077c0-.309-.156-.773-.156-1.159-.077-.079-.309-.156-.386-.388A.962.962,0,0,0,673.724,132.889Zm1.082,18.637a4.89,4.89,0,0,0,.7-.154,105.787,105.787,0,0,0-1.159-14.152C674.651,141.936,674.728,146.654,674.806,151.526Zm7.424-2.243a6.129,6.129,0,0,0,2.475-2.4,37.721,37.721,0,0,0,1.395-3.557,10.953,10.953,0,0,0,.309-4.176,10.73,10.73,0,0,0-3.868-6.728,4.6,4.6,0,0,0-2.01-1.161,24.968,24.968,0,0,0-4.178-.465c-.54,0-1.159.079-1.624.079a177.608,177.608,0,0,1,2.166,20.338A12.623,12.623,0,0,0,682.23,149.283ZM675.425,154c-.54-.077-.619.077-.619.542a8.78,8.78,0,0,1,0,2.861,10.769,10.769,0,0,0,.079,2.243,4.17,4.17,0,0,0,.231.773A29.4,29.4,0,0,0,675.425,154Zm-.386,9.745a1.327,1.327,0,0,0,.077.542c0-.156.077-.156.077-.156a1.371,1.371,0,0,0-.077-.465Zm.154-1.778v.773h.154v-.773Zm12.22-21.345v-.7a.309.309,0,0,0-.154.311v.386Zm2.4.54v0Zm1-.926v2.629A3.1,3.1,0,0,0,690.816,140.236Z" transform="translate(-1088.208 -434.568)"/>
    <path id="Path_1126" data-name="Path 1126" class="cls-2" d="M701.847,141.515a55.955,55.955,0,0,1,7.034.88,31.849,31.849,0,0,1,9.824,2.566,11.272,11.272,0,0,1,5.13,4.1,8.757,8.757,0,0,1,1.32,2.417,8.55,8.55,0,0,1,.439,3.812,33.542,33.542,0,0,0-.588,5.351,12.091,12.091,0,0,1-2.856,6.742,17.253,17.253,0,0,1-2.127,1.907,9.3,9.3,0,0,1-2.271,1.466,31.329,31.329,0,0,1-4.473,1.319c-2.125.512-4.324.366-6.376.659a36.555,36.555,0,0,1-4.031-.073c-.073,0-.293-.073-.366-.073a41.551,41.551,0,0,1-7.4-.659,36.159,36.159,0,0,1-6.964-1.832,26.419,26.419,0,0,1-2.859-.954,47.2,47.2,0,0,1-5.059-2.566,14.132,14.132,0,0,1-3.81-3,5.578,5.578,0,0,1-1.32-1.686,16.914,16.914,0,0,1-2.419-6.89v-.368c-.879-2.051-.073-3.883,1.026-5.569a16.456,16.456,0,0,1,7.769-5.937,24.273,24.273,0,0,1,10.483-1.978h.439v-.222C695.542,141.151,698.7,141.3,701.847,141.515Zm.951,29.173c.953,0,1.907.073,2.859.073a9.853,9.853,0,0,0,1.539.073c1.027-.073,2.053-.146,3.151-.146a22.721,22.721,0,0,0,4.546-.88c.659-.22,1.171-.512,1.685-.732-1.1-.146-2.2.512-3.3.659-1.173.146-2.271.368-3.444.512s-2.346.222-3.592.295H702.8Zm-.512-.295h-3.3A6.208,6.208,0,0,0,702.286,170.393Zm7.476-1.759H707.93v.295c1.245-.073,2.493-.295,3.739-.368A4.2,4.2,0,0,0,709.762,168.634Zm2.639-5.056c-2.859.22-5.717.439-8.576.586C706.684,164.164,709.616,164.53,712.4,163.578Zm-14.22.439c1.466.075,2.859.146,4.325.146.22.146.366,0,.586-.071a.541.541,0,0,0-.293-.075c-1.613-.146-3.371-.22-4.983-.22-.368,0-.661-.073-1.027-.073v.293a2.883,2.883,0,0,1,1.027-.22C698.035,163.8,698.108,164.017,698.181,164.017Zm-2.419-.439h-.878v.146h.878Zm-10.92-1.027c3.005.293,6.01.661,9.015.954v-.148c-3.005-.437-6.01-.732-9.015-1.1Zm28.879-2.273c-.514.073-1.1.22-1.687.295a48.008,48.008,0,0,1-7.915.586c-1.832-.146-3.739-.146-5.5-.22-.952,0-1.832,0-2.783-.073-2.787-.22-5.426-.514-8.21-.588-1.394-.071-2.932,0-4.4-.071-.805,0-1.685-.146-2.564-.146v.218c.805.073,1.612.368,2.491.368,2.641.22,5.424.366,8.21.586,2.493.073,4.837.293,7.331.366,2.344.222,4.764.295,7.11.295a29.5,29.5,0,0,0,3.664-.222,5.927,5.927,0,0,0,1.978-.366,2.712,2.712,0,0,1,1.246-.366c.366-.073.734-.293,1.027-.366Zm-.368-1.318c.953-.295,1.907-.807,2.785-1.173a10.041,10.041,0,0,0,1.832-1.246l1.1-1.1a5.984,5.984,0,0,0,1.32-2.417c0-.146-.073-.368-.073-.588a8.849,8.849,0,0,0-1.539-2.271,14.39,14.39,0,0,0-4.91-2.859,46.194,46.194,0,0,0-13.34-2.566,74.067,74.067,0,0,0-11.436.073,22.867,22.867,0,0,0-11.432,3.81,6.593,6.593,0,0,0-2.42,2.493c-.073.075-.293.22-.366.293-.588.295-.734.734-.734,1.468a6.573,6.573,0,0,0,4.766,5.937,13.3,13.3,0,0,0,5.864.586c1.9,0,3.883-.073,5.79-.073,2.125,0,4.251.293,6.449.366,2.42.073,4.912.222,7.4.222H708A30.313,30.313,0,0,0,713.353,158.961Zm-27.047-17.005-.073.146h1.026a8.654,8.654,0,0,1,1.541-.22c.364-.073.732-.222,1.244-.295-.146,0-.146,0-.146-.073-.366.073-.734.295-1.1.368-.587-.073-1.1-.295-1.541.22C686.894,142.1,686.6,141.956,686.306,141.956Z" transform="translate(-1078.52 -421.802)"/>
    <path id="Path_1127" data-name="Path 1127" class="cls-1" d="M711.162,153.245a1.776,1.776,0,0,0-.309,1.082c0,2.089,0,4.253-.079,6.265,0,1.47.156,3.017.156,4.487,0,.54-.077,1.159-.077,1.7.077,3.325.077,6.649.077,9.9a21.729,21.729,0,0,1,0,3.171,3.385,3.385,0,0,1-.156,1.314c-.154.619-.386,1.238-1.238.928a3.324,3.324,0,0,1-.307.928,2.133,2.133,0,0,1-.85,1.005,4.555,4.555,0,0,0-.621.388c-.7.619-.7.619-1.545,0a2.39,2.39,0,0,1-.388.465,21.2,21.2,0,0,1-2.475-.311c-.309-.077-.619-.463-.851-.774-.154-.309-.309-.7-.619-1.314-.309.928.542,1.391.619,2.01-.773.311-.928-.619-1.468-.7a1.261,1.261,0,0,1-.156.7h-.385c-1.084-.7-2.32-1.161-2.94-2.4a8.826,8.826,0,0,1-.465-1.933c0-2.089.077-4.176.077-6.342,0-.7-.077-1.391-.077-2.166.077-1.236.233-2.552.31-3.711v-2.166a28.339,28.339,0,0,1,.309-5.1v-1.082c0-1.7.077-3.326.154-4.95a19.512,19.512,0,0,1,.156-3.017v-1.47c.154-2.321.386-4.641.542-7.039.154-.926.232-1.856.309-2.783.154-1.159.154-2.4.308-3.557.309-2.01.619-4.022,1.005-6.034a2.447,2.447,0,0,1,1.624-1.856v1.624c.309-.773.388-1.468,1.238-1.933.154.309.309.542.465.851.54-.542.926-.309,1.391-.154.7.231,1.47.772,2.243.309a.308.308,0,0,1,.309.154c.7.7,1.78,1.082,2.087,2.32a43.605,43.605,0,0,1,.93,6.265c.077,2.552.309,4.95.465,7.656.619-.773,1.159-1.468,1.622-2.164.93-1.316,1.7-2.708,2.629-4.022,1.626-2.629,3.1-5.26,4.718-7.889a11.073,11.073,0,0,1,1.393-1.78c.311-.309.928-.309,1.314-.54a1.191,1.191,0,0,1,.079.309c.619,0,1.238.154,1.779.154a2.4,2.4,0,0,1,.077.773c.309-.309.619-.54,1.005-.928a11.46,11.46,0,0,0-.077,1.626,9.955,9.955,0,0,1,.542-.93c.465.542.231,1.007.154,1.47-.463,1-.928,2.089-1.47,3.017-1.236,2.012-2.706,3.867-4.022,5.8-.7,1-1.391,2.087-2.087,3.017-1.084,1.391-2.166,2.783-3.171,4.1a34.567,34.567,0,0,1,3.017,6.962c.773,2.32,1.545,4.718,2.4,7.116,1.082,3.4,2.164,6.728,3.171,10.21a28.244,28.244,0,0,1,1.236,7.5,4.4,4.4,0,0,0,.077,1,1.989,1.989,0,0,1,0,1.626,1.354,1.354,0,0,1-1.391,1c-.619,0-1.238-.311-1.935-.079a1.1,1.1,0,0,1-.54-.617,2.494,2.494,0,0,1-.31-1c-.542-2.552-1.007-5.027-1.624-7.424-.928-3.559-1.935-7.039-2.861-10.6-.773-3.25-1.472-6.419-2.243-9.668-.309-1.161-.619-2.32-1.005-3.636A22.514,22.514,0,0,0,711.162,153.245Zm-9.976-20.34c-.154,2.012-.388,4.022-.619,5.957-.154,2.706-.233,5.413-.388,8.121-.154,2.552-.309,4.95-.386,7.424v2.164c-.077,1.468-.233,3.094-.311,4.641a.547.547,0,0,0,.233.463h.154c.231-10.054,1.161-20.03,1.624-30.083A5.489,5.489,0,0,1,701.186,132.9Zm.386,28.307a3.216,3.216,0,0,0,.154-1.159h-.231v1.159Zm0-3.482v.542h.154v-.542Zm.309-3.48v-1.7h-.154v1.7Zm0-2.552v0Zm.619-13.844a78.556,78.556,0,0,0-.388,11.292C702.191,145.278,702.577,141.567,702.5,137.854Zm.309-2.321v-1.468h-.232v1.468Zm0-3.094c0,.077.079.311.079.465a1.043,1.043,0,0,1,.154-.619C702.887,132.44,702.887,132.44,702.808,132.44Zm3.713,32.871v-6.884h-.154a41.012,41.012,0,0,0,0,6.884Zm0-22.121c-.077,2.94-.077,5.957-.154,8.973C706.907,151.235,706.907,144.351,706.521,143.189Zm2.86,26.451c.077-4.872.154-9.589.233-14.463-.7.231-.773.773-.773,1.393,0,1.7,0,3.327-.077,5.027a17.406,17.406,0,0,0,.154,4.022v1.393a14.01,14.01,0,0,1,.156,2.629Zm-.229-31.322v-.774C708.765,137.777,708.842,137.931,709.153,138.319Zm.617,8.894a5.819,5.819,0,0,1-.154-1.626c-.079-2.087-.156-4.251-.233-6.417,0-.231-.152-.388-.152-.7h-.311v10.053A1.727,1.727,0,0,0,709.77,147.213Zm9.514,23.741a1.808,1.808,0,0,1,.308.775.077.077,0,0,1,.077-.079c-.077-.231-.154-.54-.231-.851Zm2.938-2.01a4.676,4.676,0,0,1,.465,1.084c.154.386.231.926.463,1.391.388,1.933.775,3.945,1.316,5.879a20.96,20.96,0,0,0-1.236-5.8c0-.077-.079-.077-.233-.077a1.34,1.34,0,0,0-.309-1.391C722.607,169.332,722.607,169.332,722.221,168.944Z" transform="translate(-1054.274 -433.889)"/>
    <path id="Path_1128" data-name="Path 1128" class="cls-1" d="M730.132,153.822a20.028,20.028,0,0,1,3.711.077c1.005.079,1.393.542,1.161,1.547,0,0-.156,0-.156.077-.619.93-1.47.7-2.241.7-1.78.077-3.636.077-5.492.233,0,8.74-.619,17.324-.93,26.218a6.2,6.2,0,0,0,1.161-.231c1.624-.079,3.248-.156,4.95-.156.542,0,1.082,0,1.236.7,0,.309.077.463-.231.617-.386.079-.154.775-.772.775-.311,0-.7.077-1.007.077-1.391.154-2.863.231-4.176.309-.7.077-1.238.233-2.01.311a1.646,1.646,0,0,0-1.161.54,1.258,1.258,0,0,1-1.545.231c-.079-.077-.156-.154-.311-.077-1.007.542-2.087-.077-3.171.077a3.87,3.87,0,0,1-.928-.154,2.443,2.443,0,0,0-1.7-.386c-.465.154-1-.231-1.393-.7a3.681,3.681,0,0,1-.928-2.01,33.387,33.387,0,0,1-.311-4.8,8.841,8.841,0,0,0-.077-2.012c-.077-2.475-.232-5.1-.232-7.733,0-.851.154-1.858.154-2.861a5.832,5.832,0,0,0,0-1.161,8.774,8.774,0,0,1,0-2.012c.077-2.706.311-5.49.465-8.2.077-1.391.077-2.861.231-4.253a7.312,7.312,0,0,1,.311-1.624c.077-1.082.154-2.32.308-3.4a35.673,35.673,0,0,1,.465-4.022c.23-1.391.307-2.783.617-4.176a32.8,32.8,0,0,1,1.47-5.877,2.148,2.148,0,0,1,1.236-1.082v1.159c.619-1,.619-1,1.084-1.393a3.943,3.943,0,0,1,.233,1.236c.386-.849.926-.926,1.468-.617a2.241,2.241,0,0,0,1.007-.077c1.545-.386,3.015-.928,4.562-1.238a10.993,10.993,0,0,1,5.492.542c.154,0,.231.077.309.077.386.311.851.465.617,1,0,.309-.771.7-1.08.7-.93,0-1.7,0-2.554.077-1.624.311-3.094.619-4.716.93a5.775,5.775,0,0,0,.231,1.314,15.806,15.806,0,0,1,.772,4.641,34.836,34.836,0,0,1,.31,4.022c.077,1.7.077,3.4.232,5.181,0,.851.077,1.624.077,2.475,0,1.082.077,2.243.077,3.48,0,.231.156.542.156.928ZM715.515,169.29a6.7,6.7,0,0,1,.077,1.316h.309c0-.54-.079-.928-.079-1.316Zm.077-4.716a2.488,2.488,0,0,0,.152,1.082c.31-.386.388-.773.077-1.082Zm0,3.4a.741.741,0,0,0,.152.54h.077v-.54Zm.152,3.788a.666.666,0,0,0,.156.93v-.93Zm.156-7.81c0-.233.154-.311.154-.388s-.154-.231-.233-.311l-.077.079c0,.231.077.386.077.619Zm-.079-3.711v.694h.079a1.141,1.141,0,0,1,.154-.694Zm.079,21.343c0,.154.154.231.154.465h.154a1.373,1.373,0,0,1-.077-.465Zm2.166-47.563c0,.311-.154.465-.231.773-.234,1.393-.388,2.785-.542,4.332-.233,2.319-.465,4.716-.774,7.037-.077,1.084-.077,2.241-.233,3.325-.077,1-.077,2.012-.077,3.017-.077.928,0,1.7-.077,2.629,0,.851-.077,1.856-.077,2.861-.154.309,0,.542,0,.851.154-2.01.388-4.174.465-6.186a55.823,55.823,0,0,1,.54-6.188c.233-2.087.388-4.253.542-6.263.156-2.089.619-4.1.7-6.111C718.221,134.1,718.144,134.024,718.067,134.024Zm0,17.169v3.482A13.154,13.154,0,0,0,718.067,151.193Zm1.391-16.473a101.379,101.379,0,0,0-1.159,14.54C718.761,144.465,719.149,139.516,719.458,134.72Zm3.173,8.507c0,1.858-.079,3.636-.079,5.569,0,1.624,0,3.325-.077,4.872a1.067,1.067,0,0,0,.388,1.007V143.227Zm0,13.767a19.758,19.758,0,0,0,0,2.166,19.762,19.762,0,0,0-.079,2.164,20.494,20.494,0,0,0,.079,2.166.151.151,0,0,0,.154-.154c.077-2.089.077-4.176.154-6.342Zm2.164,18.408s-.154.154,0,.231a.239.239,0,0,0,.077.154c.077-.077.077-.154.234-.231C724.949,175.556,724.872,175.4,724.795,175.4Zm.311-4.41a2.253,2.253,0,0,0,.154-.694c.077-1.935.231-3.945.309-5.8.077-2.318.231-4.639.309-6.96v-.309c0-.619-.309-.619-.771-.388,0,2.32-.234,4.718,0,7.039.077,2.4-.311,4.716-.234,7.114Zm0,1.007h-.234v2.783A5.623,5.623,0,0,0,725.105,172Zm.771-18.562c-.077-1.236-.077-2.475-.231-3.634,0-2.4-.077-4.95-.077-7.347-.077-.542-.231-.93-.309-1.316-.154.774-.388,12.3-.077,12.839C725.8,154.21,725.877,153.9,725.877,153.437Z" transform="translate(-1038.138 -434.158)"/>
    <g id="Group_1360" data-name="Group 1360" transform="translate(-386.416 -305.315)">
      <path id="Path_1129" data-name="Path 1129" class="cls-3" d="M687.962,139.678c-.075,0-.1.049-.15,0a.758.758,0,0,1-.226-.251c-.049-.1.052-.2.176-.226a.516.516,0,0,1,.3-.125,12.066,12.066,0,0,1,2.127-.174c.225.049.425.049.627.1a.464.464,0,0,1,.425.526c.024.75,0,1.5,0,2.251-.026.651-.026,1.3-.1,1.9-.026.55-.15,1.126-.226,1.676a3.5,3.5,0,0,1-.5,1.4,3.377,3.377,0,0,1-1.2,1.252,2.4,2.4,0,0,1-1.45.275,3.045,3.045,0,0,0-.825-.049,5.053,5.053,0,0,1-2.277-.251,3.329,3.329,0,0,1-1.151-.9,3.1,3.1,0,0,1-.526-.975,9.306,9.306,0,0,1-.525-1.927,4.678,4.678,0,0,1-.1-1.05c0-.026.026-.1.026-.127-.026-.449-.049-.9-.049-1.375a3.9,3.9,0,0,1,0-.776c.023-.451.049-.9.049-1.351a19.66,19.66,0,0,1,.176-2.15c.049-.627.2-1.276.3-1.927a9.724,9.724,0,0,1,.876-3.128,9.152,9.152,0,0,1,1.25-2.127,4.954,4.954,0,0,1,1.276-1.126,2.785,2.785,0,0,1,2.077-.425c.324.075.7.15,1.025.2a2.739,2.739,0,0,1,1.452.851,2.415,2.415,0,0,1,.524,1.3,5.7,5.7,0,0,1,0,1.6c-.075.326-.1.35-.425.2-.026-.049-.075-.049-.125-.073a6.628,6.628,0,0,1-.1-.677,5.507,5.507,0,0,0-.55-1.525,3.285,3.285,0,0,0-.6-.7.694.694,0,0,0-1.1.176,2.016,2.016,0,0,0-.15.326c-.174.55-.324,1.074-.475,1.624a26.761,26.761,0,0,0-.6,3.078q-.151.976-.226,1.951a14.141,14.141,0,0,0-.15,2.7v3.027a4.3,4.3,0,0,1,.075.827,5.127,5.127,0,0,0,.75,2.3,2.029,2.029,0,0,0,.726.651.182.182,0,0,0,.249-.1,4.446,4.446,0,0,0,.526-.874,9.169,9.169,0,0,0,.475-3.1c.05-.7.127-1.45.176-2.176a1.853,1.853,0,0,0,.024-.374C689.188,139.777,688.563,139.753,687.962,139.678Zm-4.928.649v.176h.075v-.176Zm.1-.35v-.524C683.208,139.627,682.909,139.777,683.133,139.977Zm.376,5.755c.049.176.075.4.35.5-.125-.4-.275-.75-.35-1.1a8.705,8.705,0,0,1-.3-1.149A3.535,3.535,0,0,0,683.508,145.732Zm-.3-7.83h.026v-.176C683.234,137.8,683.234,137.876,683.208,137.9Zm.151-1.177a.67.67,0,0,0,.075-.249c-.026,0-.026-.049-.075-.049,0,.1-.024.2-.024.3Zm.3-1.676a.809.809,0,0,1,.075-.374c-.051,0-.051,0-.075-.026a.813.813,0,0,1-.075.35C683.633,135.049,683.633,135.049,683.659,135.049Zm.324,9.757a3.226,3.226,0,0,0-.125-.475l-.026.049c.026.125.051.275.075.425Zm-.024.15c.024.075.024.174.05.249a.94.94,0,0,1,.1.277c0-.1.073-.277-.1-.277A.158.158,0,0,0,683.959,144.956Zm1.4-4.129V140.3h-.049a3.419,3.419,0,0,1-.026.524Zm0-.874c.1-1.276.174-2.6.325-3.978A18.75,18.75,0,0,0,685.36,139.953Zm.125,4.378c.1.225,0,.524.225.75A1.4,1.4,0,0,0,685.485,144.331Zm.35-9.357c.026-.125.075-.3.1-.425h-.026a1.858,1.858,0,0,0-.1.425Zm.327,6.629a1.758,1.758,0,0,0,.125.851.307.307,0,0,0,.05-.174v-1.351c.026-.825.026-1.626.1-2.451.049-.926.148-1.877.249-2.827.026-.226.075-.477.1-.7.05-.326.125-.651.2-.977.05-.324.125-.649.174-.975.075-.324.151-.651.2-.975A28.756,28.756,0,0,0,686.161,141.6Zm.125.952c-.051.049-.051.125-.1.15-.024.4.1.8.1,1.151a2.011,2.011,0,0,0,.325,1.074c.049.026,0,.1.049.127.1.125.1.348.277.425A16.952,16.952,0,0,1,686.286,142.555Zm1.25-11.157a.777.777,0,0,0-.1.2h.051c0-.075.05-.125.075-.2Z" transform="translate(-682.311 -128.574)"/>
      <path id="Path_1130" data-name="Path 1130" class="cls-3" d="M698.087,137.657c-.075.651-.15,1.3-.275,1.952a18.508,18.508,0,0,1-.625,3.1c-.226.776-.451,1.525-.7,2.277a5.894,5.894,0,0,1-1.177,1.751,3.581,3.581,0,0,1-.425.425,1.76,1.76,0,0,1-1.6.35h-.451a10.543,10.543,0,0,1-1.25,0,1.67,1.67,0,0,1-.651-.2,5.632,5.632,0,0,1-1.8-1.25,5.371,5.371,0,0,1-.85-1.175,5.032,5.032,0,0,1-.376-1.4c-.151-.55-.226-1.1-.324-1.652a6.637,6.637,0,0,1-.1-1.2c0-.651,0-1.3.026-1.951.024-.752.075-1.527.174-2.277a15.157,15.157,0,0,1,.226-1.826,4.882,4.882,0,0,1,.225-1.05c.2-.526.425-1,.6-1.5a6.014,6.014,0,0,1,.8-1.151,4.232,4.232,0,0,1,1.953-1.45,7.068,7.068,0,0,1,3.751-.176c.15.026.251.026.376.049a4.794,4.794,0,0,1,.526.2,3.053,3.053,0,0,1,.5.5,5.98,5.98,0,0,1,1.5,3.852c0,.526.026,1.027.075,1.751C698.163,136.132,698.137,136.907,698.087,137.657Zm-9.031,7.031a18.613,18.613,0,0,1-.775-3.078c0,.35.075.677.1,1.027a6.182,6.182,0,0,0,.35,1.626c.075.174.176.324.251.5C689.005,144.712,689.031,144.712,689.057,144.688Zm-.026-2.277h-.026v.3c.051.249.127.55.2.8a1.129,1.129,0,0,0-.2-.8A1.2,1.2,0,0,0,689.031,142.411Zm1.577-6.23v-.249h-.049v.275C690.558,136.181,690.608,136.181,690.608,136.181Zm.024,5.7a3.869,3.869,0,0,0,.352,1.9C690.857,143.137,690.758,142.51,690.631,141.885Zm.853-2.752a37.709,37.709,0,0,1,.249-5.053c0-.026-.026-.1-.026-.125a18.7,18.7,0,0,0-.324,5.3C691.407,139.184,691.484,139.159,691.484,139.133Zm-.1.851c0,.6.024,1.2.024,1.776a5.686,5.686,0,0,0,.326,1.652.671.671,0,0,0,.324.475,23.58,23.58,0,0,1-.625-3.9Zm3.527,4.5a9.846,9.846,0,0,0,1.45-4.079c.052-.6.15-1.175.226-1.776.049-.775.2-1.551.226-2.326s0-1.525-.026-2.326a6.426,6.426,0,0,0-.174-1.375,5.6,5.6,0,0,0-1.2-2.552.9.9,0,0,0-.451-.249,1.655,1.655,0,0,0-.926,0,5.648,5.648,0,0,0-.8.275,1.321,1.321,0,0,0-.6,1.05,12.257,12.257,0,0,1-.174,1.325c-.075.526-.275,1.05-.3,1.6-.026.726-.125,1.4-.176,2.077-.024.775-.024,1.525-.049,2.326v.15c.026.55.026,1.1.026,1.65,0,.376,0,.726.024,1.076.075.5.176,1.027.251,1.5a2.2,2.2,0,0,0,.15.576,6.906,6.906,0,0,0,1.476,2.226A4.175,4.175,0,0,0,694.91,144.488Zm2.876-11.86a4.453,4.453,0,0,1,.049.627.1.1,0,0,0,.077-.051,4.385,4.385,0,0,1-.077-.576Zm.127.851v.251h.024v-.251Z" transform="translate(-677.254 -128.08)"/>
    </g>
  </g>
</svg>
